<svg width="20" height="20" viewBox="0 0 20 20" fill="none" xmlns="http://www.w3.org/2000/svg">
<path d="M18.5123 9.22104C19.2956 8.65144 18.8927 7.41223 17.9242 7.41223H14.1195C13.2467 7.41223 12.4747 6.84622 12.2121 6.01382L10.9536 2.02367C10.6596 1.0914 9.3403 1.0914 9.0462 2.02367L7.78773 6.01382C7.52519 6.84622 6.75317 7.41223 5.88035 7.41223H2.07565C1.10712 7.41223 0.70421 8.65144 1.48756 9.22104L4.87612 11.6849C5.60843 12.2173 5.89166 13.1754 5.56663 14.0204L4.09662 17.8423C3.73898 18.7722 4.81245 19.596 5.61814 19.01L8.8236 16.6788C9.5249 16.1687 10.475 16.1687 11.1763 16.6788L14.3817 19.01C15.1874 19.596 16.2609 18.7722 15.9032 17.8423L14.4332 14.0204C14.1082 13.1754 14.3914 12.2173 15.1237 11.6849L18.5123 9.22104Z" stroke="black" stroke-width="1.25" stroke-linecap="round"/>
</svg>
